<?xml version="1.0" encoding="UTF-8"?>
<svg version="1.1" xmlns="http://www.w3.org/2000/svg" width="293" height="78">
<path d="M0 0 C96.69 0 193.38 0 293 0 C293 25.74 293 51.48 293 78 C196.31 78 99.62 78 0 78 C0 52.26 0 26.52 0 0 Z " fill="#FCFCFC" transform="translate(0,0)"/>
<path d="M0 0 C0.66 0 1.32 0 2 0 C4.34402262 3.66253535 4.2947685 6.72585673 4 11 C3.525625 11.928125 3.05125 12.85625 2.5625 13.8125 C1.65814258 16.98822091 1.65814258 16.98822091 3.35546875 19.45703125 C4.60013073 21.20982328 5.88220359 22.93674941 7.203125 24.6328125 C8.77850372 26.70820273 9.93207841 28.63531649 11 31 C11.99 30.67 12.98 30.34 14 30 C22.4 29.6 22.4 29.6 26 32 C26 31.34 26 30.68 26 30 C28.31 30 30.62 30 33 30 C33 38.58 33 47.16 33 56 C29.66666667 56 26.33333333 56 23 56 C22.31164062 56.03480469 21.62328125 56.06960937 20.9140625 56.10546875 C16.04543727 56.27994167 13.01121291 56.10545516 9 53 C8.75507812 53.73992188 8.51015625 54.47984375 8.2578125 55.2421875 C5.71285062 60.82213498 0.01687158 65.37886192 -5.5 68 C-12.99825093 70.27356604 -22.63872412 70.51094964 -30.078125 67.93359375 C-38.2599029 63.3282065 -44.20494129 56.48892111 -47.33984375 47.640625 C-49.14794414 40.40822344 -48.72140225 33.79215388 -45.32421875 27.12890625 C-40.63533464 19.59072974 -34.50908829 13.83636276 -26 11 C-17.80804609 10.49468374 -10.49172216 10.33058507 -3 14 C-3.05220703 12.98679687 -3.05220703 12.98679687 -3.10546875 11.953125 C-3.13253906 11.06109375 -3.15960938 10.1690625 -3.1875 9.25 C-3.22230469 8.36828125 -3.25710937 7.4865625 -3.29296875 6.578125 C-2.94589665 3.52389051 -2.11745198 2.19435701 0 0 Z " fill="#AAB442" transform="translate(50,8)"/>
<path d="M0 0 C-1.32 1.32 -2.64 2.64 -4 4 C0.36908502 7.22480085 2.3933458 8.06555763 8 9 C8 15.93 8 22.86 8 30 C4.68298411 25.85373014 1.68780684 21.71494019 -1.25 17.3125 C-1.70890625 16.63638672 -2.1678125 15.96027344 -2.640625 15.26367188 C-6 10.23960658 -6 10.23960658 -6 8 C-8.31 8 -10.62 8 -13 8 C-13 19.55 -13 31.1 -13 43 C-16.47799455 41.26100273 -17.76161374 40.47778063 -20.125 37.6875 C-20.87136719 36.82705078 -20.87136719 36.82705078 -21.6328125 35.94921875 C-25.57214212 30.33286024 -25.63757867 24.63451423 -25 18 C-24.22598628 15.14554476 -23.22565172 12.70664755 -22 10 C-25.93249373 14.78738367 -26.41550664 19.19206201 -26.34375 25.2734375 C-25.37838642 32.93052593 -20.86501111 39.23467847 -15 44 C-12.51599015 44.66347631 -12.51599015 44.66347631 -10 45 C-9.071875 45.680625 -8.14375 46.36125 -7.1875 47.0625 C-3.04466131 49.58069607 -0.76384765 49.32854122 4 49 C4 48.01 4 47.02 4 46 C10.5 43 10.5 43 15 43 C15.0825 42.46375 15.165 41.9275 15.25 41.375 C16.26376098 38.1647569 18.07160549 35.73707608 20 33 C20.66 33.66 21.32 34.32 22 35 C21.91080887 39.63793894 21.06843047 43.08004203 17.8125 46.51171875 C9.88570843 53.02057131 1.73578608 55.14369072 -8.2890625 54.515625 C-13.49148607 53.79276194 -16.9480344 52.29012909 -21 49 C-21.64453125 48.50371094 -22.2890625 48.00742188 -22.953125 47.49609375 C-28.79109239 42.40626924 -31.28135018 35.95646112 -32.37890625 28.38671875 C-32.76273923 20.42527984 -30.01825832 14.20040411 -25 8.125 C-22.85485869 5.77841141 -20.67383604 3.74827741 -18 2 C-17.34 2.33 -16.68 2.66 -16 3 C-14.6416411 2.32082055 -13.28757803 1.63299474 -11.9375 0.9375 C-7.92564708 -0.34287859 -4.17574154 -0.16375457 0 0 Z " fill="#FBFBF8" transform="translate(36,21)"/>
<path d="M0 0 C0.66 0.33 1.32 0.66 2 1 C1.61328125 1.40089844 1.2265625 1.80179688 0.828125 2.21484375 C-4.46237169 7.98986613 -8.12020299 13.88660281 -8.5 21.875 C-8.13943564 29.35380259 -5.9144787 36.40666239 -0.75 41.9375 C0.46630254 42.99825861 1.71627062 44.02192047 3 45 C3.55042969 45.433125 4.10085937 45.86625 4.66796875 46.3125 C11.10167672 50.40280441 19.6778677 50.17089367 27 49 C33.03261826 47.10937877 38.28584727 44.47274692 42.25 39.4375 C43.90468612 36.1872237 44.53927799 34.55923477 44 31 C43.01 31.33 42.02 31.66 41 32 C41.47811177 30.22888156 41.9575278 28.45811517 42.4375 26.6875 C42.70433594 25.70136719 42.97117188 24.71523438 43.24609375 23.69921875 C43.78079425 21.78482474 44.37144538 19.88566385 45 18 C45.66 18 46.32 18 47 18 C47 17.34 47 16.68 47 16 C48.80267851 14.04709828 50.25212971 13.10267891 52.90625 12.73828125 C56.74291715 12.64522776 59.71300388 12.80866926 63 15 C63 14.34 63 13.68 63 13 C65.31 13 67.62 13 70 13 C70 21.58 70 30.16 70 39 C66.66666667 39 63.33333333 39 60 39 C59.31164062 39.03480469 58.62328125 39.06960937 57.9140625 39.10546875 C53.04543727 39.27994167 50.01121291 39.10545516 46 36 C45.75507812 36.73992188 45.51015625 37.47984375 45.2578125 38.2421875 C42.71285062 43.82213498 37.01687158 48.37886192 31.5 51 C24.00174907 53.27356604 14.36127588 53.51094964 6.921875 50.93359375 C-1.2599029 46.3282065 -7.20494129 39.48892111 -10.33984375 30.640625 C-12.148696 23.40521601 -11.69737284 16.83224569 -8.35546875 10.1484375 C-5.98805973 6.39606009 -3.08184963 3.17707533 0 0 Z " fill="#0C0C0B" transform="translate(13,25)"/>
<path d="M0 0 C1.98 0 3.96 0 6 0 C6.33 0.66 6.66 1.32 7 2 C7.99 1.34 8.98 0.68 10 0 C14.81540624 -0.47364652 17.05114955 -0.49199653 21.375 1.75 C24.38770602 4.33231944 25.74846748 6.20333917 26.30078125 10.1484375 C26.32727098 15.18148561 25.87674288 18.68488568 23 23 C19.97904806 25.77085135 18.01305932 26.39241293 13.9375 26.3125 C12.65166016 26.30669922 12.65166016 26.30669922 11.33984375 26.30078125 C9 26 9 26 6 24 C6 27.63 6 31.26 6 35 C4.02 35 2.04 35 0 35 C0 23.45 0 11.9 0 0 Z " fill="#080808" transform="translate(178,38)"/>
<path d="M0 0 C2.4375 1 2.4375 1 4 2 C4.33 1.67 4.66 1.34 5 1 C6.98 1 8.96 1 11 1 C11 9.25 11 17.5 11 26 C9.02 26 7.04 26 5 26 C5 25.34 5 24.68 5 24 C4.01 24.66 3.02 25.32 2 26 C-1.39179204 26.54613601 -4.60689554 26.53660917 -8 26 C-11.92356571 23.05732571 -14.47233492 19.74487314 -15.40625 14.88671875 C-15.60407783 10.24600759 -15.1773017 7.61064957 -12.125 4 C-8.24080344 -0.05307467 -5.64370436 -0.29191574 0 0 Z " fill="#0A0A0A" transform="translate(267,38)"/>
<path d="M0 0 C3.94962019 2.0541365 6.39941943 4.13598554 8.03515625 8.2734375 C8.60771736 13.52191435 7.78703661 16.78889173 5.03515625 21.2734375 C2.62687118 24.18344863 0.56419983 25.08921538 -3.234375 25.546875 C-10.94926709 25.85499665 -10.94926709 25.85499665 -14.46484375 23.0859375 C-17.87321426 19.25152068 -18.7874588 16.89946622 -19.33984375 11.8359375 C-18.79036093 6.61585069 -16.70289639 3.7218147 -12.71484375 0.3984375 C-8.36507982 -1.38101138 -4.38474785 -1.62139781 0 0 Z " fill="#0D0D0D" transform="translate(164.96484375,38.7265625)"/>
<path d="M0 0 C6 0 6 0 7.90625 1.87109375 C8.4321875 2.71800781 8.958125 3.56492188 9.5 4.4375 C10.07878906 5.34113281 10.65757813 6.24476562 11.25390625 7.17578125 C11.83011719 8.10777344 12.40632813 9.03976563 13 10 C14.14045166 11.71193073 15.28586136 13.42057481 16.4375 15.125 C17.7059375 17.043125 17.7059375 17.043125 19 19 C19.33 12.73 19.66 6.46 20 0 C21.98 0 23.96 0 26 0 C26.04938149 4.37823917 26.0857104 8.75633146 26.10986328 13.13476562 C26.11993043 14.6247032 26.13358518 16.11462097 26.15087891 17.60449219 C26.17509653 19.74419028 26.18647564 21.88362753 26.1953125 24.0234375 C26.20578613 25.31169434 26.21625977 26.59995117 26.22705078 27.92724609 C26 31 26 31 24 33 C21.69921875 33.0859375 21.69921875 33.0859375 19 32 C16.95497301 29.73926573 15.40480405 27.21701083 13.8125 24.625 C13.37486328 23.93921875 12.93722656 23.2534375 12.48632812 22.546875 C11.67247026 21.26955303 10.86485599 19.98821522 10.06567383 18.70166016 C9.07264317 17.11599608 8.03781434 15.55672151 7 14 C6.95101563 14.61488281 6.90203125 15.22976562 6.8515625 15.86328125 C6.77679687 16.67152344 6.70203125 17.47976562 6.625 18.3125 C6.55539063 19.11300781 6.48578125 19.91351563 6.4140625 20.73828125 C6 23 6 23 4 26 C3.60612212 28.32387947 3.26513915 30.65793749 3 33 C2.01 33 1.02 33 0 33 C0 22.11 0 11.22 0 0 Z " fill="#070707" transform="translate(24,30)"/>
<path d="M0 0 C2.31 0 4.62 0 7 0 C7.06058594 1.28777344 7.12117187 2.57554688 7.18359375 3.90234375 C7.26798247 5.58074159 7.3526313 7.25912636 7.4375 8.9375 C7.47681641 9.78763672 7.51613281 10.63777344 7.55664062 11.51367188 C7.59853516 12.32255859 7.64042969 13.13144531 7.68359375 13.96484375 C7.72025146 14.7137085 7.75690918 15.46257324 7.79467773 16.23413086 C7.81771063 18.02461326 7.81771063 18.02461326 9 19 C11.5 19.16666667 11.5 19.16666667 14 19 C15.51421001 17.48578999 15.21309856 16.07527232 15.31640625 13.96484375 C15.35830078 13.15595703 15.40019531 12.34707031 15.44335938 11.51367188 C15.50233398 10.2384668 15.50233398 10.2384668 15.5625 8.9375 C15.60568359 8.08349609 15.64886719 7.22949219 15.69335938 6.34960938 C15.79976702 4.23327963 15.90041731 2.11666187 16 0 C18.31 0 20.62 0 23 0 C23.08115993 3.06303578 23.14057409 6.12390815 23.1875 9.1875 C23.21263672 10.05181641 23.23777344 10.91613281 23.26367188 11.80664062 C23.31980871 16.69054544 23.26570457 20.07963204 20 24 C15.55969108 26.96020594 11.20937437 26.64921633 6 26 C3.4375 24.1875 3.4375 24.1875 2 22 C1.34 21.01 0.68 20.02 0 19 C-0.22705078 16.9152832 -0.22705078 16.9152832 -0.1953125 14.55078125 C-0.18886719 13.70322266 -0.18242187 12.85566406 -0.17578125 11.98242188 C-0.15902344 11.10134766 -0.14226562 10.22027344 -0.125 9.3125 C-0.11597656 8.41982422 -0.10695312 7.52714844 -0.09765625 6.60742188 C-0.07409748 4.40467686 -0.04120329 2.20247412 0 0 Z " fill="#151515" transform="translate(209,38)"/>
<path d="M0 0 C2.31 0 4.62 0 7 0 C7.08138426 2.87557703 7.14067851 5.74882262 7.1875 8.625 C7.21263672 9.43324219 7.23777344 10.24148437 7.26367188 11.07421875 C7.32547782 16.14230591 6.87955468 19.63703837 4 24 C0.74537409 26.16975061 -0.56099258 26.37460798 -4.375 26.5 C-5.31085938 26.5515625 -6.24671875 26.603125 -7.2109375 26.65625 C-10.46379794 25.89087107 -12.06412092 24.61408412 -14.0625 21.93847656 C-15.89218249 18.15522684 -15.51366666 14.23498965 -15.3125 10.125 C-15.28994141 9.24585938 -15.26738281 8.36671875 -15.24414062 7.4609375 C-15.18559748 5.30654993 -15.09592783 3.1530469 -15 1 C-13.02 1 -11.04 1 -9 1 C-8.93941406 2.13179687 -8.87882812 3.26359375 -8.81640625 4.4296875 C-8.73200083 5.91147145 -8.64735283 7.3932416 -8.5625 8.875 C-8.52318359 9.62136719 -8.48386719 10.36773437 -8.44335938 11.13671875 C-8.28426376 15.19986864 -8.28426376 15.19986864 -7 19 C-5.02 19 -3.04 19 -1 19 C-0.67 12.73 -0.34 6.46 0 0 Z " fill="#0D0D0D" transform="translate(119,38)"/>
<path d="M0 0 C2.31 0 4.62 0 7 0 C7 2.97 7 5.94 7 9 C7.99 9 8.98 9 10 9 C10 10.98 10 12.96 10 15 C9.01 15 8.02 15 7 15 C7 21.6 7 28.2 7 35 C4.69 35 2.38 35 0 35 C0 28.4 0 21.8 0 15 C-0.99 15 -1.98 15 -3 15 C-3 13.02 -3 11.04 -3 9 C-2.01 9 -1.02 9 0 9 C0 6.03 0 3.06 0 0 Z " fill="#141414" transform="translate(90,29)"/>
<path d="M0 0 C0 3 0 3 -1.5 6.5 C-3.97434529 12.94040113 -4.26608335 19.93599529 -1.4375 26.3125 C1.28796972 30.80240448 1.28796972 30.80240448 8 36 C8 24.45 8 12.9 8 1 C10.31 1 12.62 1 15 1 C15 1.33 15 1.66 15 2 C13.02 2 11.04 2 9 2 C9 12.89 9 23.78 9 35 C9.99 35 10.98 35 12 35 C11.9175 33.948125 11.835 32.89625 11.75 31.8125 C12.03596677 27.45150679 12.90957464 25.99953049 16 23 C16.66 23 17.32 23 18 23 C18.28571429 31.57142857 18.28571429 31.57142857 16 35 C16.721875 35.061875 17.44375 35.12375 18.1875 35.1875 C21.84657625 36.24456647 23.49211602 38.20550071 26 41 C25.67 41.66 25.34 42.32 25 43 C18.72429983 43.43280691 16.17854748 42.82762205 11 39 C10.05125 38.773125 9.1025 38.54625 8.125 38.3125 C2.04293425 35.75803239 -1.75574879 30.13855677 -5 24.5625 C-7.09789973 17.08873222 -6.6814654 10.81752851 -3 4 C-1.3125 1.5625 -1.3125 1.5625 0 0 Z " fill="#C5D065" transform="translate(15,28)"/>
<path d="M0 0 C4.66666667 0 9.33333333 0 14 0 C13.67 1.65 13.34 3.3 13 5 C12.360625 5.12375 11.72125 5.2475 11.0625 5.375 C10.381875 5.58125 9.70125 5.7875 9 6 C7.88176185 8.23647631 7.80603939 9.64891529 7.68359375 12.1328125 C7.64169922 12.93847656 7.59980469 13.74414062 7.55664062 14.57421875 C7.49766602 15.83685547 7.49766602 15.83685547 7.4375 17.125 C7.37272461 18.39923828 7.37272461 18.39923828 7.30664062 19.69921875 C7.20045764 21.79928223 7.09971503 23.89961948 7 26 C4.69 26 2.38 26 0 26 C0 17.42 0 8.84 0 0 Z " fill="#191919" transform="translate(236,38)"/>
<path d="M0 0 C0.66 0.33 1.32 0.66 2 1 C1.61328125 1.40089844 1.2265625 1.80179688 0.828125 2.21484375 C-4.46237169 7.98986613 -8.12020299 13.88660281 -8.5 21.875 C-8.13943564 29.35380259 -5.9144787 36.40666239 -0.75 41.9375 C0.46630254 42.99825861 1.71627062 44.02192047 3 45 C3.55042969 45.433125 4.10085937 45.86625 4.66796875 46.3125 C11.10167672 50.40280441 19.6778677 50.17089367 27 49 C34.81786641 46.5498824 39.96982311 43.11997917 44 36 C44.66 35.01 45.32 34.02 46 33 C46.33 33.99 46.66 34.98 47 36 C43.53664479 42.79629119 37.25140133 48.23870516 30.265625 51.1328125 C22.11031819 53.29845617 11.88693269 53.75290959 4.375 49.5 C-3.27645191 43.93057582 -8.6788259 37.2846964 -11 28 C-12.01863526 20.56501274 -11.01913311 14.37038389 -7 8 C-4.80508389 5.18937936 -2.48231771 2.55901854 0 0 Z " fill="#66723F" transform="translate(13,25)"/>
<path d="M0 0 C1.2065625 0.0309375 1.2065625 0.0309375 2.4375 0.0625 C2.1075 1.7125 1.7775 3.3625 1.4375 5.0625 C0.798125 5.18625 0.15875 5.31 -0.5 5.4375 C-1.180625 5.64375 -1.86125 5.85 -2.5625 6.0625 C-3.68073815 8.29897631 -3.75646061 9.71141529 -3.87890625 12.1953125 C-3.92080078 13.00097656 -3.96269531 13.80664062 -4.00585938 14.63671875 C-4.06483398 15.89935547 -4.06483398 15.89935547 -4.125 17.1875 C-4.18977539 18.46173828 -4.18977539 18.46173828 -4.25585938 19.76171875 C-4.36204236 21.86178223 -4.46278497 23.96211948 -4.5625 26.0625 C-6.5425 26.0625 -8.5225 26.0625 -10.5625 26.0625 C-10.5625 17.8125 -10.5625 9.5625 -10.5625 1.0625 C-8.22916667 1.0625 -5.89583333 1.0625 -3.5625 1.0625 C-2.5625 0.0625 -2.5625 0.0625 0 0 Z " fill="#040404" transform="translate(141.5625,37.9375)"/>
<path d="M0 0 C2.375 1.625 2.375 1.625 4 4 C4.48288863 7.31123632 4.29618989 9.296549 3 12.375 C0.29455964 14.5731703 -1.7087924 14.5712063 -5.125 14.3828125 C-7 14 -7 14 -9 12.375 C-10.29618989 9.296549 -10.48288863 7.31123632 -10 4 C-7.21921757 -0.06422047 -4.81255755 -0.80209293 0 0 Z " fill="#F2F2F2" transform="translate(73,44)"/>
<path d="M0 0 C2.375 1.625 2.375 1.625 4 4 C4.60605429 7.63632575 4.47161336 9.28314769 2.4375 12.375 C-0.92058549 14.61372366 -3.04745604 14.57491549 -7 14 C-9.62541413 11.79803976 -9.9445448 10.38026421 -10.4375 7 C-10 4 -10 4 -8.375 1.625 C-5.28813568 -0.48706506 -3.6717087 -0.61195145 0 0 Z " fill="#F2F2F2" transform="translate(194,44)"/>
<path d="M0 0 C2.375 1 2.375 1 4 3 C4.66300779 6.57577233 4.65930485 9.75895557 2.9375 13 C-0.13215135 14.58433618 -2.61681143 14.36248449 -6 14 C-7.9375 13 -7.9375 13 -9 11 C-9.5327028 7.39862897 -9.68723346 4.22174836 -7.875 1 C-5.08970454 -0.48549091 -3.10747489 -0.38050713 0 0 Z " fill="#F7F7F7" transform="translate(162,44)"/>
<path d="M0 0 C2.375 1.0625 2.375 1.0625 4 3 C4.46268457 6.63537875 4.40708036 9.06610977 2.9375 12.4375 C1 14 1 14 -2.5 14.4375 C-6 14 -6 14 -7.9375 13 C-9.65701652 9.76326302 -9.53653931 6.57692871 -9 3 C-6.88807224 -0.75453824 -4.01205827 -0.49127244 0 0 Z " fill="#F8F8F8" transform="translate(268,44)"/>
<path d="M0 0 C3.96367441 3.70318427 6.91785859 7.5494437 9.8125 12.125 C10.21919922 12.74503906 10.62589844 13.36507812 11.04492188 14.00390625 C14 18.62276786 14 18.62276786 14 22 C11.25 23.1875 11.25 23.1875 8 24 C5.8125 22.6875 5.8125 22.6875 4 21 C3.01 20.67 2.02 20.34 1 20 C1.66 16.04 2.32 12.08 3 8 C2.01 8.33 1.02 8.66 0 9 C0 6.03 0 3.06 0 0 Z " fill="#F7F8F5" transform="translate(30,43)"/>
<path d="M0 0 C5.60978522 5.60978522 6.16564806 7.23940229 6.375 14.6875 C6.35539118 20.99500388 5.39843784 25.35640333 1 30 C0.67 30 0.34 30 0 30 C0 20.1 0 10.2 0 0 Z " fill="#FAFAF9" transform="translate(51,29)"/>
<path d="M0 0 C0.66 0 1.32 0 2 0 C4.33991708 3.65612044 4.37437949 6.73207376 4 11 C2.5 13.9375 2.5 13.9375 1 16 C-0.32 15.67 -1.64 15.34 -3 15 C-3.08142927 13.2507786 -3.13938541 11.50045458 -3.1875 9.75 C-3.22230469 8.77546875 -3.25710937 7.8009375 -3.29296875 6.796875 C-2.95840784 3.60293349 -2.23334367 2.27119696 0 0 Z " fill="#BDC559" transform="translate(50,8)"/>
<path d="M0 0 C4.83256305 0.41421969 6.82679218 2.46413986 10 6 C9.67 6.66 9.34 7.32 9 8 C2.94859592 8.41733821 -0.17158669 8.10415132 -5 4 C-5 3.34 -5 2.68 -5 2 C-3.35 1.67 -1.7 1.34 0 1 C0 0.67 0 0.34 0 0 Z " fill="#B2BB3D" transform="translate(31,63)"/>
<path d="M0 0 C1.98 0 3.96 0 6 0 C6.33 9.57 6.66 19.14 7 29 C7.66 28.67 8.32 28.34 9 28 C8.690625 28.598125 8.38125 29.19625 8.0625 29.8125 C6.89790296 32.08956772 6.89790296 32.08956772 6 35 C4.2578125 35.984375 4.2578125 35.984375 2.125 36.75 C1.42632812 37.01296875 0.72765625 37.2759375 0.0078125 37.546875 C-2 38 -2 38 -5 37 C-3.02 36.505 -3.02 36.505 -1 36 C-1 35.34 -1 34.68 -1 34 C0.65 33.34 2.3 32.68 4 32 C4.33 21.77 4.66 11.54 5 1 C3.35 1 1.7 1 0 1 C0 0.67 0 0.34 0 0 Z " fill="#525643" transform="translate(45,29)"/>
<path d="M0 0 C0.66 0.99 1.32 1.98 2 3 C-2.9789718 10.43073822 -8.70732213 16.99539748 -17.8359375 18.83203125 C-21.93615352 19.15027906 -25.94802035 18.61443954 -30 18 C-30 17.67 -30 17.34 -30 17 C-28.90945312 16.99613281 -28.90945312 16.99613281 -27.796875 16.9921875 C-18.99475526 16.65364443 -10.5688288 14.61764107 -4.171875 8.15234375 C-2.25730628 5.56107401 -1.01756102 3.05268305 0 0 Z " fill="#CAD565" transform="translate(58,58)"/>
<path d="M0 0 C0.99 0.33 1.98 0.66 3 1 C3.3125 4.3125 3.3125 4.3125 3 8 C0.875 10 0.875 10 -2 11 C-5.3125 10.6875 -5.3125 10.6875 -8 10 C-8.33 9.01 -8.66 8.02 -9 7 C-6.69 7 -4.38 7 -2 7 C-1.855625 6.030625 -1.71125 5.06125 -1.5625 4.0625 C-1 1 -1 1 0 0 Z " fill="#C9CF79" transform="translate(40,7)"/>
<path d="M0 0 C2.31 0 4.62 0 7 0 C7 0.33 7 0.66 7 1 C5.02 1 3.04 1 1 1 C1 11.89 1 22.78 1 34 C1.99 34 2.98 34 4 34 C4 33.34 4 32.68 4 32 C4.99 31.67 5.98 31.34 7 31 C7 32.32 7 33.64 7 35 C4.69 35 2.38 35 0 35 C0 23.45 0 11.9 0 0 Z " fill="#5E604E" transform="translate(23,29)"/>
<path d="M0 0 C2.72880503 1.20067421 4.9576853 2.70206715 7.3125 4.5 C13.56094943 9.00100171 20.53291028 9.42907563 28 10 C28 10.33 28 10.66 28 11 C17.9608928 11.72281572 11.09389687 11.65318323 3 5 C1.234375 3.42578125 1.234375 3.42578125 0 2 C0 1.34 0 0.68 0 0 Z " fill="#8A963E" transform="translate(10,66)"/>
<path d="M0 0 C0.99 0 1.98 0 3 0 C5.64 4.62 8.28 9.24 11 14 C10.34 14 9.68 14 9 14 C9 14.66 9 15.32 9 16 C8.34 16 7.68 16 7 16 C6.67 16.99 6.34 17.98 6 19 C5.85304688 17.78763672 5.85304688 17.78763672 5.703125 16.55078125 C4.63342864 8.50447422 4.63342864 8.50447422 0 2 C0 1.34 0 0.68 0 0 Z " fill="#96A062" transform="translate(51,27)"/>
<path d="M0 0 C0 2.31 0 4.62 0 7 C-0.66 7 -1.32 7 -2 7 C-2.99 8.485 -2.99 8.485 -4 10 C-4.66 10 -5.32 10 -6 10 C-5.38909774 3.52443609 -5.38909774 3.52443609 -3.5625 1.0625 C-2 0 -2 0 0 0 Z " fill="#ABB436" transform="translate(33,51)"/>
<path d="M0 0 C-2.36595933 2.61500768 -4.86049226 4.38999603 -8 6 C-8.66 5.67 -9.32 5.34 -10 5 C-10.99 5.33 -11.98 5.66 -13 6 C-13.33 5.34 -13.66 4.68 -14 4 C-12.42466914 3.13116294 -10.83935491 2.28040932 -9.25 1.4375 C-8.36828125 0.96183594 -7.4865625 0.48617188 -6.578125 -0.00390625 C-3.79298812 -1.07998186 -2.73019786 -1.06528748 0 0 Z " fill="#B2BA7F" transform="translate(28,20)"/>
<path d="M0 0 C2.5625 1.9375 2.5625 1.9375 5 5 C5.14543237 8.10601995 4.6663569 10.97170479 4 14 C3.67 14 3.34 14 3 14 C3 12.02 3 10.04 3 8 C2.01 8.33 1.02 8.66 0 9 C0 6.03 0 3.06 0 0 Z " fill="#E9EADD" transform="translate(30,43)"/>
<path d="M0 0 C0.66 0.99 1.32 1.98 2 3 C1.125 5.6875 1.125 5.6875 0 8 C0.66 8.33 1.32 8.66 2 9 C-3.94 9.495 -3.94 9.495 -10 10 C-10.66 8.68 -11.32 7.36 -12 6 C-11.01 6.495 -11.01 6.495 -10 7 C-8.46331135 7.22467831 -6.92031946 7.40796805 -5.375 7.5625 C-4.55773437 7.64628906 -3.74046875 7.73007812 -2.8984375 7.81640625 C-2.27195312 7.87699219 -1.64546875 7.93757813 -1 8 C-1.020625 7.05125 -1.04125 6.1025 -1.0625 5.125 C-1 2 -1 2 0 0 Z " fill="#D0D694" transform="translate(31,56)"/>
<path d="M0 0 C0.66 0.33 1.32 0.66 2 1 C-0.625 5.875 -0.625 5.875 -4 7 C-5.68538601 8.99665314 -5.68538601 8.99665314 -7 11 C-7.33 9.68 -7.66 8.36 -8 7 C-5.36 4.69 -2.72 2.38 0 0 Z " fill="#DFE4C0" transform="translate(18,23)"/>
<path d="M0 0 C0.66 0.99 1.32 1.98 2 3 C1.06558465 4.27310312 0.12732889 5.543388 -0.8125 6.8125 C-1.59560547 7.87404297 -1.59560547 7.87404297 -2.39453125 8.95703125 C-3.83128877 10.78531393 -5.31815763 12.39896688 -7 14 C-7.99 13.67 -8.98 13.34 -10 13 C-9.0925 12.34 -8.185 11.68 -7.25 11 C-3.55493135 7.96163787 -1.83299278 4.34527112 0 0 Z " fill="#C3CE4E" transform="translate(58,58)"/>
<path d="M0 0 C0.28617187 0.57621094 0.57234375 1.15242188 0.8671875 1.74609375 C1.58896507 3.18218223 2.32218296 4.61261796 3.0703125 6.03515625 C3.41835937 6.70417969 3.76640625 7.37320313 4.125 8.0625 C4.47820313 8.73410156 4.83140625 9.40570313 5.1953125 10.09765625 C6 12 6 12 6 15 C2.66423791 12.00931675 0.6253469 9.19168411 -1 5 C-0.6875 2.125 -0.6875 2.125 0 0 Z " fill="#748046" transform="translate(4,52)"/>
<path d="M0 0 C0.70640625 0.09990234 1.4128125 0.19980469 2.140625 0.30273438 C3.88621607 0.55041959 5.63072084 0.80573871 7.375 1.0625 C7.375 1.3925 7.375 1.7225 7.375 2.0625 C4.91637599 2.11633848 2.4589245 2.15609038 0 2.1875 C-1.04800781 2.21263672 -1.04800781 2.21263672 -2.1171875 2.23828125 C-3.95397486 2.25594267 -5.79101963 2.16553261 -7.625 2.0625 C-8.285 1.4025 -8.945 0.7425 -9.625 0.0625 C-6.48694878 -1.50652561 -3.35881412 -0.49886446 0 0 Z " fill="#ABB939" transform="translate(30.625,74.9375)"/>
<path d="M0 0 C1.98 0 3.96 0 6 0 C6 0.66 6 1.32 6 2 C6.66 2.33 7.32 2.66 8 3 C5.6875 3.625 5.6875 3.625 3 4 C2.01 3.34 1.02 2.68 0 2 C0 1.34 0 0.68 0 0 Z " fill="#B7C049" transform="translate(31,14)"/>
<path d="M0 0 C0.99 0 1.98 0 3 0 C5.1875 3 5.1875 3 7 6 C6.67 6.66 6.34 7.32 6 8 C1.125 3.375 1.125 3.375 0 0 Z " fill="#929E45" transform="translate(51,27)"/>
<path d="M0 0 C0.99 0.33 1.98 0.66 3 1 C3 3.31 3 5.62 3 8 C2.01 8.495 2.01 8.495 1 9 C0.67 6.03 0.34 3.06 0 0 Z " fill="#B2BC3A" transform="translate(40,7)"/>
</svg>
