<svg width="221" height="116" viewBox="0 0 221 116" fill="none" xmlns="http://www.w3.org/2000/svg">
  <path d="M40.5 58C40.5 72.6355 28.6355 84.5 14 84.5C-0.635529 84.5 -12.5 72.6355 -12.5 58C-12.5 43.3645 -0.635529 31.5 14 31.5C28.6355 31.5 40.5 43.3645 40.5 58Z" stroke="#A4C639" stroke-width="3"/>
  <path d="M27.8271 42.056C22.8271 48.056 4.82709 64.056 27.8271 86.056" stroke="#8EAA37" stroke-width="3" stroke-linecap="round"/>
  <path d="M10.8271 37.056C22.8271 39.056 42.3271 49.556 27.8271 86.056" stroke="#8EAA37" stroke-width="3" stroke-linecap="round"/>
  <path d="M53.44 44.552H60.304L70.992 66.952L81.648 44.552H88.512V77H83.024V53.656L73.04 74.6H68.88L58.928 53.816V77H53.44V44.552ZM104.644 77.48C101.471 77.48 98.8377 76.7333 96.7444 75.24C94.651 73.7467 93.3844 71.6533 92.9444 68.968H98.4324C98.7151 70.0533 99.3577 70.92 100.36 71.568C101.363 72.216 102.644 72.54 104.204 72.54C105.685 72.54 106.838 72.28 107.662 71.76C108.487 71.24 108.9 70.5387 108.9 69.656C108.9 68.7733 108.471 68.1307 107.614 67.728C106.757 67.3253 105.315 66.9067 103.29 66.472C101.317 66.0373 99.7057 65.6027 98.4644 65.168C97.223 64.7333 96.1537 64.0427 95.2564 63.096C94.359 62.1493 93.9104 60.8667 93.9104 59.248C93.9104 57.9653 94.3124 56.7933 95.1164 55.732C95.9204 54.6707 97.0864 53.832 98.6144 53.216C100.143 52.6 101.933 52.292 103.986 52.292C107.108 52.292 109.625 53.0173 111.538 54.468C113.451 55.9187 114.518 57.9173 114.738 60.464H109.41C109.251 59.3707 108.72 58.5187 107.822 57.908C106.925 57.2973 105.717 56.992 104.204 56.992C102.821 56.992 101.759 57.2333 101.018 57.716C100.278 58.1987 99.9084 58.8573 99.9084 59.692C99.9084 60.3933 100.167 60.9613 100.684 61.396C101.201 61.8307 101.854 62.1653 102.644 62.4C103.434 62.6347 104.538 62.9213 105.954 63.26C107.863 63.6947 109.394 64.1293 110.546 64.564C111.699 64.9987 112.692 65.6573 113.526 66.54C114.361 67.4227 114.803 68.6267 114.85 70.152C114.85 71.5347 114.448 72.7707 113.646 73.864C112.843 74.9573 111.683 75.8067 110.162 76.412C108.641 77.1244 106.805 77.48 104.644 77.48ZM121.583 50.472C120.484 50.472 119.561 50.1267 118.815 49.436C118.068 48.7453 117.695 47.8907 117.695 46.872C117.695 45.8533 118.068 44.9987 118.815 44.308C119.561 43.6173 120.484 43.272 121.583 43.272C122.681 43.272 123.604 43.6173 124.351 44.308C125.097 44.9987 125.471 45.8533 125.471 46.872C125.471 47.8907 125.097 48.7453 124.351 49.436C123.604 50.1267 122.681 50.472 121.583 50.472ZM124.271 52.772V77H118.895V52.772H124.271ZM140.875 77.48C138.395 77.48 136.172 76.9493 134.207 75.888C132.242 74.8267 130.699 73.3387 129.579 71.424C128.459 69.5093 127.899 67.288 127.899 64.76C127.899 62.2533 128.475 60.048 129.627 58.144C130.779 56.24 132.354 54.7627 134.351 53.712C136.348 52.6613 138.618 52.136 141.163 52.136C143.708 52.136 145.978 52.6613 147.975 53.712C149.972 54.7627 151.547 56.24 152.699 58.144C153.851 60.048 154.427 62.2533 154.427 64.76C154.427 67.2667 153.835 69.4827 152.651 71.392C151.467 73.3013 149.859 74.7947 147.827 75.872C145.794 76.9442 143.483 77.48 140.875 77.48ZM140.875 72.444C142.258 72.444 143.531 72.1253 144.691 71.488C145.851 70.8507 146.782 69.9213 147.483 68.7C148.183 67.4787 148.533 66.0373 148.533 64.376C148.533 62.7147 148.183 61.2893 147.483 60.1C146.782 58.9107 145.867 57.9973 144.739 57.36C143.611 56.7227 142.354 56.404 140.971 56.404C139.587 56.404 138.33 56.7227 137.203 57.36C136.075 57.9973 135.175 58.9107 134.507 60.1C133.839 61.2893 133.505 62.7147 133.505 64.376C133.505 66.0373 133.839 67.4787 134.507 68.7C135.175 69.9213 136.059 70.8507 137.155 71.488C138.251 72.1253 139.491 72.444 140.875 72.444ZM160.437 52.772H165.813V56.788C166.481 55.3363 167.457 54.2107 168.741 53.412C170.025 52.6133 171.451 52.214 173.021 52.214C174.181 52.214 175.171 52.3693 175.993 52.68L173.805 57.716C173.203 57.4387 172.473 57.3 171.617 57.3C169.941 57.3 168.526 57.908 167.373 59.124C166.219 60.34 165.643 62.2053 165.643 64.72V77H160.437V52.772ZM185.397 77.48C182.918 77.48 180.695 76.9493 178.729 75.888C176.764 74.8267 175.222 73.3387 174.101 71.424C172.981 69.5093 172.421 67.288 172.421 64.76C172.421 62.2533 172.997 60.048 174.149 58.144C175.302 56.24 176.876 54.7627 178.873 53.712C180.87 52.6613 183.14 52.136 185.685 52.136C188.231 52.136 190.5 52.6613 192.497 53.712C194.494 54.7627 196.069 56.24 197.221 58.144C198.374 60.048 198.949 62.2533 198.949 64.76C198.949 67.2667 198.358 69.4827 197.173 71.392C195.989 73.3013 194.382 74.7947 192.349 75.872C190.316 76.9442 188.006 77.48 185.397 77.48ZM185.397 72.444C186.781 72.444 188.054 72.1253 189.214 71.488C190.374 70.8507 191.305 69.9213 192.006 68.7C192.706 67.4787 193.056 66.0373 193.056 64.376C193.056 62.7147 192.706 61.2893 192.006 60.1C191.305 58.9107 190.39 57.9973 189.262 57.36C188.134 56.7227 186.877 56.404 185.493 56.404C184.11 56.404 182.853 56.7227 181.726 57.36C180.598 57.9973 179.697 58.9107 179.029 60.1C178.361 61.2893 178.027 62.7147 178.027 64.376C178.027 66.0373 178.361 67.4787 179.029 68.7C179.697 69.9213 180.582 70.8507 181.678 71.488C182.774 72.1253 184.014 72.444 185.397 72.444Z" fill="black"/>
</svg>